:FULLY-SPECIFIED
:FORCE-ALL-JOINTS-BE-3DOF
:DEGREES
1053
root 1.20634 15.1597 32.5529 4.88809 -3.39863 3.44854
lfemur 8.80467 0.461705 5.67295
ltibia 4.13472e-014 -0 0
lfoot -30.3983 -11.1786 -2.85128e-005
ltoes -34.2346 0 0
rfemur -31.043 -15.7228 -6.30305
rtibia 50.0062 -0 0
rfoot -21.8839 5.47403 -8.31802e-005
rtoes -40.9646 0 0
lowerback -1.82709 -0.0482831 -0.239626
upperback -0.475647 -0.026365 -6.03756
thorax 0.533697 -0.0145559 -6.12362
lowerneck -7.04317 0.728666 6.51016
upperneck 1.30754 0.284658 3.69076
head 1.60704 0.270335 0.0684048
lclavicle 6.16232e-015 3.18055e-014 0
lhumerus -58.7047 -46.9277 115.405
lradius 55.823 -0 0
lwrist 25.6137 0 0
lhand 37.4318 25.2865 -9.00183e-007
lfingers 7.12502 -0 0
lthumb 60.2342 38.8183 -2.13035e-005
rclavicle 6.16232e-015 3.18055e-014 0
rhumerus 2.13819 -23.5947 0.632659
rradius 27.4727 -0 0
rwrist -9.7081 0 0
rhand -30.5638 -42.0961 0.000100142
rfingers 7.12502 -0 0
rthumb -3.86194 -72.0406 9.63285e-005
1054
root 1.20788 15.1602 32.5572 4.88958 -3.38488 3.4339
lfemur 8.81472 0.45088 5.68176
ltibia 4.13472e-014 -0 0
lfoot -30.406 -11.1635 -2.44395e-005
ltoes -34.2562 0 0
rfemur -31.0065 -15.6903 -6.30278
rtibia 49.9902 -0 0
rfoot -21.8731 5.44261 -7.12973e-005
rtoes -40.9467 0 0
lowerback -1.84181 -0.0498896 -0.245615
upperback -0.475115 -0.0278307 -6.03251
thorax 0.542371 -0.015169 -6.11489
lowerneck -7.05339 0.717773 6.50346
upperneck 1.32375 0.26861 3.70191
head 1.61386 0.263257 0.0725158
lclavicle 6.16232e-015 3.18055e-014 0
lhumerus -58.7043 -46.9359 115.414
lradius 55.8221 -0 0
lwrist 25.6136 0 0
lhand 37.4422 25.2862 -7.71586e-007
lfingers 7.12502 -0 0
lthumb 60.2431 38.8085 -1.82602e-005
rclavicle 6.16232e-015 3.18055e-014 0
rhumerus 2.10692 -23.5631 0.645489
rradius 27.474 -0 0
rwrist -9.68521 0 0
rhand -30.5536 -42.056 8.58357e-005
rfingers 7.12502 -0 0
rthumb -3.85206 -72.0007 8.25673e-005
1055
root 1.20941 15.1607 32.5615 4.89108 -3.37113 3.41927
lfemur 8.82477 0.440054 5.69057
ltibia 4.13472e-014 -0 0
lfoot -30.4137 -11.1483 -1.83296e-005
ltoes -34.2777 0 0
rfemur -30.9701 -15.6578 -6.30248
rtibia 49.9743 -0 0
rfoot -21.8623 5.4112 -5.3473e-005
rtoes -40.9289 0 0
lowerback -1.85654 -0.0514977 -0.251605
upperback -0.474583 -0.0292965 -6.02746
thorax 0.551046 -0.0157833 -6.10617
lowerneck -7.06361 0.706879 6.49676
upperneck 1.33995 0.252559 3.71306
head 1.62068 0.256179 0.0766259
lclavicle 6.16232e-015 3.18055e-014 0
lhumerus -58.7038 -46.9441 115.423
lradius 55.8212 -0 0
lwrist 25.6136 0 0
lhand 37.4526 25.2858 -5.78689e-007
lfingers 7.12502 -0 0
lthumb 60.252 38.7987 -1.36951e-005
rclavicle 6.16232e-015 3.18055e-014 0
rhumerus 2.07567 -23.5316 0.658298
rradius 27.4753 -0 0
rwrist -9.66232 0 0
rhand -30.5434 -42.0159 6.43767e-005
rfingers 7.12502 -0 0
rthumb -3.84219 -71.9608 6.19254e-005
1056
root 1.21095 15.1611 32.5658 4.89256 -3.35739 3.40463
lfemur 8.83481 0.429226 5.69938
ltibia 4.13472e-014 -0 0
lfoot -30.4214 -11.1332 -1.01831e-005
ltoes -34.2993 0 0
rfemur -30.9336 -15.6253 -6.30217
rtibia 49.9583 -0 0
rfoot -21.8514 5.37978 -2.97072e-005
rtoes -40.911 0 0
lowerback -1.87126 -0.0531073 -0.257594
upperback -0.474051 -0.0307623 -6.02242
thorax 0.55972 -0.016399 -6.09744
lowerneck -7.07382 0.695984 6.49007
upperneck 1.35615 0.236505 3.7242
head 1.6275 0.249101 0.0807351
lclavicle 6.16232e-015 3.18055e-014 0
lhumerus -58.7034 -46.9523 115.431
lradius 55.8202 -0 0
lwrist 25.6135 0 0
lhand 37.463 25.2855 -3.21494e-007
lfingers 7.12502 -0 0
lthumb 60.2608 38.7888 -7.60841e-006
rclavicle 6.16232e-015 3.18055e-014 0
rhumerus 2.04444 -23.5 0.671085
rradius 27.4766 -0 0
rwrist -9.63943 0 0
rhand -30.5331 -41.9759 3.57648e-005
rfingers 7.12502 -0 0
rthumb -3.83231 -71.9209 3.4403e-005
1057
root 1.21248 15.1616 32.5701 4.89405 -3.34364 363.39
lfemur 8.84486 0.418396 5.70819
ltibia 4.13472e-014 0 0
lfoot -30.4291 -11.118 0
ltoes -34.3209 0 0
rfemur -30.8972 -15.5928 -6.30183
rtibia 49.9423 0 0
rfoot -21.8406 5.34837 0
rtoes -40.8932 0 0
lowerback -1.88599 -0.0547184 -0.263582
upperback -0.473519 -0.0322281 -6.01737
thorax 0.568394 -0.017016 -6.08872
lowerneck -7.08404 0.685087 6.48338
upperneck 1.37235 0.220448 3.73534
head 1.63432 0.242022 0.0848435
lclavicle 6.16232e-015 3.18055e-014 0
lhumerus -58.703 -46.9605 115.44
lradius 55.8193 0 0
lwrist 25.6134 0 0
lhand 37.4734 25.2851 0
lfingers 7.12502 0 0
lthumb 60.2697 38.779 0
rclavicle 6.16232e-015 3.18055e-014 0
rhumerus 2.01322 -23.4684 0.68385
rradius 27.4779 0 0
rwrist -9.61654 0 0
rhand -30.5229 -41.9358 0
rfingers 7.12502 0 0
rthumb -3.82243 -791.881 0
